<?xml version="1.0" encoding="utf-8"?>
<!-- Generator: Adobe Illustrator 23.0.1, SVG Export Plug-In . SVG Version: 6.00 Build 0)  -->
<svg version="1.1" id="Layer_1" xmlns="http://www.w3.org/2000/svg" xmlns:xlink="http://www.w3.org/1999/xlink" x="0px" y="0px"
	 viewBox="0 0 16 16" style="enable-background:new 0 0 16 16;" xml:space="preserve">
<style type="text/css">
	.st0{fill:url(#SVGID_1_);}
	.st1{fill:#FFFFFF;}
</style>
<linearGradient id="SVGID_1_" gradientUnits="userSpaceOnUse" x1="2.3864" y1="-2.0138" x2="10.2117" y2="11.9453">
	<stop  offset="0" style="stop-color:#ED3668"/>
	<stop  offset="1" style="stop-color:#0E7BF7"/>
</linearGradient>
<circle class="st0" cx="8" cy="8" r="8"/>
<g>
	<path class="st1" d="M4.9,4.8V4.1h1.2c0.4,0,0.8,0,1.2,0c0.4,0,0.8,0,1.2,0c0.4,0,0.9,0,1.3,0.1s0.8,0.2,1.1,0.4
		c0.3,0.2,0.6,0.5,0.8,0.8S12,6.1,12,6.6c0,0.5-0.1,0.9-0.3,1.2c-0.2,0.3-0.5,0.6-0.8,0.8S10.2,9,9.7,9.2C9.3,9.3,8.8,9.3,8.4,9.3
		c0,0-0.1,0-0.2,0s-0.2,0-0.3,0c-0.1,0-0.2,0-0.3,0c-0.1,0-0.2,0-0.2,0v2.6h1.2v0.7H4.9v-0.7H6V4.8H4.9z M7.3,8.6c0,0,0.1,0,0.2,0
		s0.2,0,0.3,0c0.1,0,0.2,0,0.3,0c0.1,0,0.2,0,0.2,0c0.3,0,0.6,0,0.9-0.1c0.3-0.1,0.5-0.2,0.7-0.4s0.4-0.4,0.5-0.6
		c0.1-0.3,0.2-0.6,0.2-0.9c0-0.7-0.2-1.1-0.6-1.5C9.5,4.9,9,4.7,8.2,4.7c-0.2,0-0.4,0-0.5,0c-0.1,0-0.3,0-0.4,0.1V8.6z"/>
</g>
</svg>
