<?xml version="1.0" encoding="UTF-8" standalone="no"?>
<!DOCTYPE svg PUBLIC "-//W3C//DTD SVG 1.1//EN" "http://www.w3.org/Graphics/SVG/1.1/DTD/svg11.dtd">
<svg version="1.1" xmlns="http://www.w3.org/2000/svg" xmlns:xlink="http://www.w3.org/1999/xlink"
     preserveAspectRatio="xMidYMid meet" viewBox="0 0 640 640" width="16" height="16">
    <defs>
        <path d="M291.5 0C130.51 0 0 130.17 0 290.75C0 451.33 130.51 581.5 291.5 581.5C452.49 581.5 583 451.33 583 290.75C583 130.17 452.49 0 291.5 0Z"
              id="i1RzIo294"/>
        <path d="M274.74 366.27C279.48 364.31 284.92 366.55 286.88 371.28C286.89 371.3 286.9 371.32 286.91 371.34C288.87 376.1 286.62 381.55 281.86 383.54C277.73 385.25 257.04 393.81 219.81 409.23L211.57 454.3L168.87 454.3L173.55 428.38C158.44 434.63 150.05 438.1 148.37 438.8C143.63 440.76 138.2 438.52 136.23 433.79C136.22 433.77 136.21 433.75 136.2 433.73C134.25 428.97 136.5 423.54 141.25 421.55C143.67 420.55 155.75 415.55 177.51 406.54L180.24 391.29C150.87 403.45 134.55 410.21 131.28 411.56C126.54 413.51 121.11 411.26 119.15 406.53C119.14 406.51 119.14 406.5 119.13 406.49C117.17 401.73 119.42 396.28 124.18 394.29C128.18 392.64 148.18 384.36 184.17 369.45L227.86 127.38C301.9 127.38 343.03 127.38 351.26 127.38C426.81 124.79 464.58 149.95 464.58 202.89C464.58 270.03 415.35 321.97 331.85 321.97C325.45 321.97 293.41 321.97 235.75 321.97L230.59 350.24C246.85 343.52 255.88 339.78 257.69 339.03C262.43 337.08 267.86 339.33 269.82 344.06C269.83 344.07 269.83 344.09 269.84 344.1C271.79 348.85 269.54 354.29 264.79 356.28C262.24 357.33 249.51 362.61 226.59 372.11L223.8 387.37C250.97 376.12 267.95 369.09 274.74 366.27ZM264.35 165.53L243 282.28C300.04 282.28 331.73 282.28 338.07 282.28C396.59 282.28 418.78 242.58 418.78 213.77C418.78 184.99 404.82 165.53 358.25 165.53C345.73 165.53 314.43 165.53 264.35 165.53Z"
              id="b7rYD8oIHQ"/>
    </defs>
    <g>
        <g>
            <g>
                <use xlink:href="#i1RzIo294" opacity="1" fill="#00acff" fill-opacity="1"/>
                <g>
                    <use xlink:href="#i1RzIo294" opacity="1" fill-opacity="0" stroke="#000000" stroke-width="1"
                         stroke-opacity="0"/>
                </g>
            </g>
            <g>
                <use xlink:href="#b7rYD8oIHQ" opacity="1" fill="#ffffff" fill-opacity="1"/>
                <g>
                    <use xlink:href="#b7rYD8oIHQ" opacity="1" fill-opacity="0" stroke="#000000" stroke-width="1"
                         stroke-opacity="0"/>
                </g>
            </g>
        </g>
    </g>
</svg>